<svg width="211" height="117" viewBox="0 0 211 117" fill="current" xmlns="http://www.w3.org/2000/svg">
<path d="M62.7525 80C61.1945 76.694 59.6555 73.255 58.1355 69.683C56.6155 66.111 55.1715 62.577 53.8035 59.081C52.4355 55.585 51.1625 52.241 49.9845 49.049C48.8445 45.857 47.8565 43.007 47.0205 40.499H56.8245C57.5845 42.779 58.4015 45.249 59.2755 47.909C60.1875 50.531 61.0995 53.153 62.0115 55.775C62.9615 58.397 63.8735 60.905 64.7475 63.299C65.6215 65.693 66.4385 67.764 67.1985 69.512C67.9205 67.764 68.7185 65.693 69.5925 63.299C70.5045 60.905 71.4165 58.397 72.3285 55.775C73.2785 53.153 74.1905 50.531 75.0645 47.909C75.9765 45.249 76.8124 42.779 77.5724 40.499H87.0345C86.1605 43.007 85.1534 45.857 84.0135 49.049C82.8734 52.241 81.6195 55.585 80.2515 59.081C78.8835 62.577 77.4394 66.111 75.9194 69.683C74.3994 73.255 72.8605 76.694 71.3025 80H62.7525Z" fill="current"/>
<path d="M113.1 47.339C108.958 47.339 105.956 48.498 104.094 50.816C102.27 53.096 101.358 56.231 101.358 60.221C101.358 62.159 101.586 63.926 102.042 65.522C102.498 67.08 103.182 68.429 104.094 69.569C105.006 70.709 106.146 71.602 107.514 72.248C108.882 72.856 110.478 73.16 112.302 73.16C113.29 73.16 114.126 73.141 114.81 73.103C115.532 73.065 116.159 72.989 116.691 72.875V59.138H125.583V78.689C124.519 79.107 122.809 79.544 120.453 80C118.097 80.494 115.19 80.741 111.732 80.741C108.768 80.741 106.07 80.285 103.638 79.373C101.244 78.461 99.1919 77.131 97.4819 75.383C95.7719 73.635 94.4419 71.488 93.4919 68.942C92.5799 66.396 92.1239 63.489 92.1239 60.221C92.1239 56.915 92.6369 53.989 93.6629 51.443C94.6889 48.897 96.0949 46.75 97.8809 45.002C99.6669 43.216 101.757 41.867 104.151 40.955C106.583 40.043 109.167 39.587 111.903 39.587C113.765 39.587 115.437 39.72 116.919 39.986C118.439 40.214 119.731 40.499 120.795 40.841C121.897 41.145 122.79 41.468 123.474 41.81C124.196 42.152 124.709 42.418 125.013 42.608L122.448 49.733C121.232 49.087 119.826 48.536 118.23 48.08C116.672 47.586 114.962 47.339 113.1 47.339Z" fill="current"/>
<path d="M163.382 72.362V80H136.991V40.499H145.883V72.362H163.382Z" fill="current"/>
<path fill-rule="evenodd" clip-rule="evenodd" d="M13 13V104H198V13H13ZM5 0C2.23858 0 0 2.23858 0 5V112C0 114.761 2.23857 117 5 117H206C208.761 117 211 114.761 211 112V5C211 2.23858 208.761 0 206 0H5Z" fill="current"/>
</svg>
