<svg width="53" height="53" viewBox="0 0 53 53" fill="none" xmlns="http://www.w3.org/2000/svg">
<path fill-rule="evenodd" clip-rule="evenodd" d="M26.5 53C41.1355 53 53 41.1355 53 26.5C53 11.8645 41.1355 0 26.5 0C11.8645 0 0 11.8645 0 26.5C0 41.1355 11.8645 53 26.5 53ZM9.02944 37.7906C9.66743 38.5448 10.5502 38.9219 11.6778 38.9219C12.3603 38.9219 12.939 38.811 13.4138 38.5891C13.8886 38.3673 14.2892 38.0938 14.6156 37.7684L19.2447 33.1546H33.7553L38.3844 37.7684C38.7108 38.0938 39.1114 38.3673 39.5862 38.5891C40.061 38.811 40.6397 38.9219 41.3222 38.9219C42.4498 38.9219 43.3326 38.5448 43.9706 37.7906C44.6085 37.0364 44.8385 35.9939 44.6605 34.6629L42.5685 19.8011C42.3311 18.2335 41.5966 16.8878 40.3652 15.7639C39.1337 14.6401 37.7316 14.0781 36.1589 14.0781H16.8856C15.3129 14.0781 13.9108 14.6401 12.6793 15.7639C11.4479 16.8878 10.7134 18.2335 10.476 19.8011L8.33952 34.6629C8.16147 35.9939 8.39145 37.0364 9.02944 37.7906ZM36.2924 28.2746C36.7672 28.2746 37.1826 28.0971 37.5387 27.7422C37.8948 27.3873 38.0729 26.9732 38.0729 26.5C38.0729 26.0268 37.8948 25.6127 37.5387 25.2578C37.1826 24.9029 36.7672 24.7254 36.2924 24.7254C35.8176 24.7254 35.4022 24.9029 35.0461 25.2578C34.69 25.6127 34.512 26.0268 34.512 26.5C34.512 26.9732 34.69 27.3873 35.0461 27.7422C35.4022 28.0971 35.8176 28.2746 36.2924 28.2746ZM32.509 22.5073C32.9838 22.5073 33.3992 22.3298 33.7553 21.9749C34.1114 21.62 34.2894 21.2059 34.2894 20.7327C34.2894 20.2595 34.1114 19.8454 33.7553 19.4905C33.3992 19.1356 32.9838 18.9581 32.509 18.9581C32.0342 18.9581 31.6188 19.1356 31.2627 19.4905C30.9066 19.8454 30.7285 20.2595 30.7285 20.7327C30.7285 21.2059 30.9066 21.62 31.2627 21.9749C31.6188 22.3298 32.0342 22.5073 32.509 22.5073ZM18.488 28.0527H20.7136V24.7254H24.0519V22.5073H20.7136V19.18H18.488V22.5073H15.1497V24.7254H18.488V28.0527Z" fill="url(#paint0_linear_14_6)"/>
<defs>
<linearGradient id="paint0_linear_14_6" x1="5.38281" y1="9.10938" x2="45.9609" y2="46.375" gradientUnits="userSpaceOnUse">
<stop stop-color="#FF74AD"/>
<stop offset="1" stop-color="#00CDDB"/>
</linearGradient>
</defs>
</svg>
