<svg width="64" height="64" viewBox="0 0 64 64" fill="none" xmlns="http://www.w3.org/2000/svg">
<path fill-rule="evenodd" clip-rule="evenodd" d="M32 64C49.6731 64 64 49.6731 64 32C64 14.3269 49.6731 0 32 0C14.3269 0 0 14.3269 0 32C0 49.6731 14.3269 64 32 64ZM10.9035 45.6339C11.6739 46.5446 12.7399 47 14.1015 47C14.9257 47 15.6244 46.8661 16.1978 46.5982C16.7711 46.3304 17.2548 46 17.649 45.6071L23.2389 40.0357H40.7611L46.351 45.6071C46.7452 46 47.2289 46.3304 47.8022 46.5982C48.3756 46.8661 49.0743 47 49.8985 47C51.2601 47 52.3261 46.5446 53.0965 45.6339C53.8669 44.7232 54.1446 43.4643 53.9296 41.8571L51.4034 23.9107C51.1168 22.0179 50.2299 20.3929 48.7428 19.0357C47.2558 17.6786 45.5627 17 43.6636 17H20.3902C18.4911 17 16.798 17.6786 15.3109 19.0357C13.8238 20.3929 12.937 22.0179 12.6503 23.9107L10.0704 41.8571C9.85537 43.4643 10.1331 44.7232 10.9035 45.6339ZM43.8248 34.1429C44.3981 34.1429 44.8998 33.9286 45.3298 33.5C45.7598 33.0714 45.9748 32.5714 45.9748 32C45.9748 31.4286 45.7598 30.9286 45.3298 30.5C44.8998 30.0714 44.3981 29.8571 43.8248 29.8571C43.2515 29.8571 42.7498 30.0714 42.3198 30.5C41.8898 30.9286 41.6748 31.4286 41.6748 32C41.6748 32.5714 41.8898 33.0714 42.3198 33.5C42.7498 33.9286 43.2515 34.1429 43.8248 34.1429ZM39.2561 27.1786C39.8295 27.1786 40.3311 26.9643 40.7611 26.5357C41.1911 26.1071 41.4061 25.6071 41.4061 25.0357C41.4061 24.4643 41.1911 23.9643 40.7611 23.5357C40.3311 23.1071 39.8295 22.8929 39.2561 22.8929C38.6828 22.8929 38.1811 23.1071 37.7512 23.5357C37.3212 23.9643 37.1062 24.4643 37.1062 25.0357C37.1062 25.6071 37.3212 26.1071 37.7512 26.5357C38.1811 26.9643 38.6828 27.1786 39.2561 27.1786ZM22.3252 33.875H25.0126V29.8571H29.0438V27.1786H25.0126V23.1607H22.3252V27.1786H18.294V29.8571H22.3252V33.875Z" fill="url(#paint0_linear_14_6)"/>
<defs>
<linearGradient id="paint0_linear_14_6" x1="6.5" y1="11" x2="58.5" y2="49.5" gradientUnits="userSpaceOnUse">
<stop stop-color="#0F74E7"/>
<stop offset="1" stop-color="#FF6756"/>
</linearGradient>
</defs>
</svg>
